<svg width="3937" height="1858" xmlns="http://www.w3.org/2000/svg" xmlns:xlink="http://www.w3.org/1999/xlink" xml:space="preserve" overflow="hidden"><g transform="translate(-352 -266)"><path d="M1603.14 2114.24C1491.68 2120.84 1397.46 2001.38 1392.69 1847.43 1387.91 1693.49 1474.4 1563.35 1585.86 1556.76 1590.78 1556.46 1595.7 1556.42 1600.62 1556.63" stroke="#172C51" stroke-width="4.58333" stroke-miterlimit="8" fill="none" fill-rule="evenodd"/><path d="M0 0 1984.4 0.128478" stroke="#172C51" stroke-width="4.58333" stroke-miterlimit="8" fill="none" fill-rule="evenodd" transform="matrix(1 0 0 -1 1600.5 1556.63)"/><path d="M0 0 1981.88 0.000360892" stroke="#172C51" stroke-width="4.58333" stroke-miterlimit="8" fill="none" fill-rule="evenodd" transform="matrix(1 0 0 -1 1603.5 2114.5)"/><path d="M3440.5 1835.5C3440.5 1681.41 3505.42 1556.5 3585.5 1556.5 3665.58 1556.5 3730.5 1681.41 3730.5 1835.5 3730.5 1989.59 3665.58 2114.5 3585.5 2114.5 3505.42 2114.5 3440.5 1989.59 3440.5 1835.5Z" stroke="#172C51" stroke-width="4.58333" stroke-miterlimit="8" fill="none" fill-rule="evenodd"/><path d="M354.5 373.895C354.5 315.687 401.687 268.5 459.895 268.5L1518.11 268.5C1576.31 268.5 1623.5 315.687 1623.5 373.895L1623.5 1162.11C1623.5 1220.31 1576.31 1267.5 1518.11 1267.5L459.895 1267.5C401.687 1267.5 354.5 1220.31 354.5 1162.11Z" stroke="#172C51" stroke-width="4.58333" stroke-miterlimit="8" fill="none" fill-rule="evenodd"/><text font-family="Yu Gothic,Yu Gothic_MSFontService,sans-serif" font-weight="400" font-size="83" transform="matrix(1 0 0 1 782.222 392)">タイマ管理</text><path d="M1500.5 1764.67C1500.5 1745.24 1516.24 1729.5 1535.67 1729.5L2156.33 1729.5C2175.75 1729.5 2191.5 1745.24 2191.5 1764.67L2191.5 1905.33C2191.5 1924.75 2175.75 1940.5 2156.33 1940.5L1535.67 1940.5C1516.24 1940.5 1500.5 1924.75 1500.5 1905.33Z" stroke="#172C51" stroke-width="4.58333" stroke-miterlimit="8" fill="#00B050" fill-rule="evenodd"/><text fill="#FFFFFF" font-family="Yu Gothic,Yu Gothic_MSFontService,sans-serif" font-weight="400" font-size="83" transform="matrix(1 0 0 1 1614.66 1861)">ec</text><text fill="#FFFFFF" font-family="Yu Gothic,Yu Gothic_MSFontService,sans-serif" font-weight="400" font-size="83" transform="matrix(1 0 0 1 1702.89 1861)">=Success</text><path d="M2594.5 1764.67C2594.5 1745.24 2610.25 1729.5 2629.67 1729.5L2884.33 1729.5C2903.76 1729.5 2919.5 1745.24 2919.5 1764.67L2919.5 1905.33C2919.5 1924.75 2903.76 1940.5 2884.33 1940.5L2629.67 1940.5C2610.25 1940.5 2594.5 1924.75 2594.5 1905.33Z" stroke="#172C51" stroke-width="4.58333" stroke-miterlimit="8" fill="#00B050" fill-rule="evenodd"/><path d="M3017.5 1764.67C3017.5 1745.24 3033.25 1729.5 3052.67 1729.5L3307.33 1729.5C3326.76 1729.5 3342.5 1745.24 3342.5 1764.67L3342.5 1905.33C3342.5 1924.76 3326.76 1940.5 3307.33 1940.5L3052.67 1940.5C3033.25 1940.5 3017.5 1924.76 3017.5 1905.33Z" stroke="#172C51" stroke-width="4.58333" stroke-miterlimit="8" fill="#00B050" fill-rule="evenodd"/><text font-family="Yu Gothic,Yu Gothic_MSFontService,sans-serif" font-weight="400" font-size="83" transform="matrix(1 0 0 1 1975.51 1498)">io_context</text><text font-family="Yu Gothic,Yu Gothic_MSFontService,sans-serif" font-weight="400" font-size="83" transform="matrix(1 0 0 1 2366.24 1498)">のキュー</text><path d="M473.5 1041.5C473.5 1022.17 489.17 1006.5 508.5 1006.5L1129.5 1006.5C1148.83 1006.5 1164.5 1022.17 1164.5 1041.5L1164.5 1181.5C1164.5 1200.83 1148.83 1216.5 1129.5 1216.5L508.5 1216.5C489.17 1216.5 473.5 1200.83 473.5 1181.5Z" stroke="#172C51" stroke-width="4.58333" stroke-miterlimit="8" stroke-dasharray="18.3333 13.75" fill="none" fill-rule="evenodd"/><path d="M473.5 698.5C473.5 679.17 489.17 663.5 508.5 663.5L1129.5 663.5C1148.83 663.5 1164.5 679.17 1164.5 698.5L1164.5 838.499C1164.5 857.83 1148.83 873.5 1129.5 873.5L508.5 873.5C489.17 873.5 473.5 857.83 473.5 838.499Z" stroke="#172C51" stroke-width="4.58333" stroke-miterlimit="8" fill="#00B050" fill-rule="evenodd"/><text fill="#FFFFFF" font-family="Yu Gothic,Yu Gothic_MSFontService,sans-serif" font-weight="400" font-size="83" transform="matrix(1 0 0 1 620.946 794)">ec</text><text fill="#FFFFFF" font-family="Yu Gothic,Yu Gothic_MSFontService,sans-serif" font-weight="400" font-size="83" transform="matrix(1 0 0 1 709.175 794)">=</text><text fill="#FFFFFF" font-family="Yu Gothic,Yu Gothic_MSFontService,sans-serif" font-weight="400" font-size="83" transform="matrix(1 0 0 1 768.758 794)">未確定</text><path d="M1.66322e-06-3.4375 739.074-3.43714 739.074 3.43786-1.66322e-06 3.4375ZM713.307-19.0106 745.897 0.000360188 713.307 19.0113C711.667 19.9678 709.562 19.4139 708.605 17.7741 707.649 16.1342 708.203 14.0294 709.843 13.0728L737.343-2.96888 737.343 2.9696 709.843-13.0721C708.203-14.0287 707.649-16.1335 708.605-17.7734 709.562-19.4132 711.667-19.9672 713.307-19.0106Z" fill="#4472C4" transform="matrix(-1 0 0 1 1995.38 768.5)"/><text font-family="Yu Gothic,Yu Gothic_MSFontService,sans-serif" font-weight="400" font-size="83" transform="matrix(1 0 0 1 2037.44 794)">cancel</text><text font-family="Yu Gothic,Yu Gothic_MSFontService,sans-serif" font-weight="400" font-size="83" transform="matrix(1 0 0 1 2283.8 794)">できる</text><text font-family="Yu Gothic,Yu Gothic_MSFontService,sans-serif" font-weight="400" font-size="83" transform="matrix(1 0 0 1 848.131 1498)">時間経過し、キューに追加</text><path d="M0 733 0 424.85C0 247.739 143.577 104.163 320.687 104.163L645.75 104.163 645.75 0 829 182.788 645.75 365.576 645.75 261.413 320.687 261.413C230.424 261.413 157.251 334.586 157.251 424.85L157.251 733Z" stroke="#172C51" stroke-width="4.58333" stroke-miterlimit="8" fill="#ED7D31" fill-rule="evenodd" transform="matrix(1 -1.22465e-16 -1.22465e-16 -1 648.5 1970.5)"/><path d="M1.66322e-06-3.4375 739.074-3.43714 739.074 3.43786-1.66322e-06 3.4375ZM713.307-19.0106 745.897 0.000360188 713.307 19.0113C711.667 19.9678 709.562 19.4139 708.605 17.7741 707.649 16.1342 708.203 14.0294 709.843 13.0728L737.343-2.96888 737.343 2.9696 709.843-13.0721C708.203-14.0287 707.649-16.1335 708.605-17.7734 709.562-19.4132 711.667-19.9672 713.307-19.0106Z" fill="#4472C4" transform="matrix(-1 0 0 1 1995.38 1109.5)"/><text font-family="Yu Gothic,Yu Gothic_MSFontService,sans-serif" font-weight="400" font-size="83" transform="matrix(1 0 0 1 2037.44 1135)">cancel</text><text font-family="Yu Gothic,Yu Gothic_MSFontService,sans-serif" font-weight="400" font-size="83" transform="matrix(1 0 0 1 2283.8 1135)">できない</text><text font-family="Yu Gothic,Yu Gothic_MSFontService,sans-serif" font-weight="400" font-size="83" transform="matrix(1 0 0 1 2613.8 1135)">(</text><text font-family="Yu Gothic,Yu Gothic_MSFontService,sans-serif" font-weight="400" font-size="83" transform="matrix(1 0 0 1 2645.88 1135)">対象が既に存在しない</text><text font-family="Yu Gothic,Yu Gothic_MSFontService,sans-serif" font-weight="400" font-size="83" transform="matrix(1 0 0 1 3470.88 1135)">)</text><path d="M0 586 0 339.648C-5.2835e-14 198.056 114.783 83.2732 256.375 83.2732L683.5 83.2732 683.5 0 830 146.13 683.5 292.262 683.5 208.988 256.375 208.988C184.213 208.988 125.715 267.487 125.715 339.648L125.715 586Z" stroke="#172C51" stroke-width="4.58333" stroke-miterlimit="8" fill="#ED7D31" fill-rule="evenodd" transform="matrix(-6.12323e-17 -1 -1 6.12323e-17 4104.5 1924.5)"/><text font-family="Yu Gothic,Yu Gothic_MSFontService,sans-serif" font-weight="400" font-size="83" transform="matrix(1 0 0 1 3736.33 1027)">順次</text><text font-family="Yu Gothic,Yu Gothic_MSFontService,sans-serif" font-weight="400" font-size="83" transform="matrix(1 0 0 1 3901.33 1027)">invoke</text></g></svg>